<svg xmlns="http://www.w3.org/2000/svg" viewBox="0 0 75 75">
  <g stroke="black" stroke-width="2" fill="none" style="fill: none; stroke: rgb(0, 0, 0); stroke-width:2;">
    <!-- Small house-->
    <rect x="15" y="23" width="15" height="45"></rect>
    <rect x="20" y="58" width="5" height="10"></rect>
    <rect x="20" y="28" width="5" height="5"></rect>
    <rect x="20" y="38" width="5" height="5"></rect>
    <rect x="20" y="48" width="5" height="5"></rect>

    <!-- Big house-->
    <rect x="35" y="13" width="25" height="55"></rect>
    <rect x="40" y="58" width="5" height="10"></rect>
    <rect x="40" y="18" width="5" height="5"></rect>
    <rect x="50" y="18" width="5" height="5"></rect>
    <rect x="40" y="28" width="5" height="5"></rect>
    <rect x="50" y="28" width="5" height="5"></rect>
    <rect x="40" y="38" width="5" height="5"></rect>
    <rect x="50" y="38" width="5" height="5"></rect>
    <rect x="40" y="48" width="5" height="5"></rect>
    <rect x="50" y="48" width="5" height="5"></rect>
    <rect x="50" y="58" width="5" height="5"></rect>
  </g>
</svg>